<svg width="33" height="33" viewBox="0 0 33 33" fill="none" xmlns="http://www.w3.org/2000/svg">
<path fill-rule="evenodd" clip-rule="evenodd" d="M24.2398 0.89624H8.30321C3.88767 0.89624 0.28418 4.49973 0.28418 8.91527V24.8772C0.28418 29.2674 3.88767 32.8709 8.30321 32.8709H24.2651C28.6807 32.8709 32.2842 29.2674 32.2842 24.8518V8.91527C32.2588 4.49973 28.6553 0.89624 24.2398 0.89624ZM19.0629 11.0469H24.392V12.3157H19.0629V11.0469ZM16.576 19.3958C16.576 23.3546 12.668 23.4815 12.668 23.4815H9.06451H8.96301H6.37458V10.2856H8.93763H9.03914H12.6426C14.5966 10.2856 16.1446 11.4022 16.1446 13.7368C16.1446 16.0715 14.2667 16.1984 14.2667 16.1984C16.7536 16.173 16.576 19.3958 16.576 19.3958ZM26.143 19.1675H19.7227C19.7227 21.7051 21.9051 21.5021 21.9051 21.5021C23.9606 21.5021 23.8845 20.1825 23.8845 20.1825H26.0669C26.0669 23.7353 21.829 23.583 21.829 23.583C16.7536 23.583 17.0835 18.5838 17.0835 18.5838C17.0835 18.5838 17.0835 13.5592 21.829 13.5592C26.8282 13.5338 26.143 19.1675 26.143 19.1675ZM12.2112 12.5695H12.668C12.668 12.5695 13.5308 12.5188 13.5308 13.8637C13.5308 15.2087 13.0233 15.361 12.4396 15.361H9.16602V12.5695H12.2112ZM9.16602 17.3911H12.668C12.668 17.3911 13.9622 17.4165 13.9368 19.2182C13.9368 20.7408 12.9725 20.9438 12.465 20.9438H12.2366H9.16602V17.3911ZM19.6973 17.3911C19.6973 17.3911 19.9765 15.3863 21.8797 15.3863C23.783 15.3863 23.7576 17.3911 23.7576 17.3911H19.6973Z" fill="#fff" />
</svg>
