<svg width="24" height="25" viewBox="0 0 24 25" fill="none" xmlns="http://www.w3.org/2000/svg">
<path d="M16.57 22.1044C16.8356 22.1059 17.0989 22.0545 17.3444 21.9532C17.5899 21.8519 17.8128 21.7028 18 21.5144L20.71 18.8044C20.8963 18.617 21.0008 18.3636 21.0008 18.0994C21.0008 17.8352 20.8963 17.5818 20.71 17.3944L16.71 13.3944C16.5227 13.2081 16.2692 13.1036 16.005 13.1036C15.7408 13.1036 15.4874 13.2081 15.3 13.3944L13.7 14.9844C12.5923 14.689 11.5663 14.1453 10.7 13.3944C9.95115 12.5267 9.40766 11.5012 9.11003 10.3944L10.7 8.79439C10.8863 8.60703 10.9908 8.35358 10.9908 8.08939C10.9908 7.8252 10.8863 7.57175 10.7 7.38439L6.70003 3.38439C6.51267 3.19814 6.25922 3.0936 5.99503 3.0936C5.73085 3.0936 5.4774 3.19814 5.29003 3.38439L2.59003 6.10439C2.40167 6.29163 2.25248 6.51452 2.15118 6.76004C2.04988 7.00556 1.9985 7.2688 2.00003 7.53439C2.09076 11.3767 3.62611 15.0437 6.30003 17.8044C9.06075 20.4783 12.7277 22.0137 16.57 22.1044ZM6.00003 5.51439L8.59003 8.10439L7.30003 9.39439C7.17785 9.50884 7.08636 9.65213 7.03395 9.81112C6.98153 9.97011 6.96987 10.1397 7.00003 10.3044C7.3738 11.9748 8.16514 13.523 9.30003 14.8044C10.5804 15.9407 12.1291 16.7323 13.8 17.1044C13.9622 17.1383 14.1303 17.1314 14.2891 17.0842C14.4479 17.0371 14.5926 16.9513 14.71 16.8344L16 15.5144L18.59 18.1044L16.59 20.1044C13.2738 20.019 10.1095 18.6955 7.72003 16.3944C5.41295 14.0039 4.08564 10.8355 4.00003 7.51439L6.00003 5.51439ZM20 11.1044H22C22.026 9.91539 21.8109 8.73345 21.3678 7.6298C20.9247 6.52614 20.2627 5.52363 19.4217 4.68268C18.5808 3.84173 17.5783 3.17975 16.4746 2.73664C15.371 2.29353 14.189 2.07846 13 2.10439V4.10439C13.9279 4.07229 14.8525 4.2314 15.7163 4.57182C16.5801 4.91225 17.3647 5.42671 18.0212 6.08323C18.6777 6.73975 19.1922 7.52429 19.5326 8.38809C19.873 9.25189 20.0321 10.1765 20 11.1044Z" fill="#333333"/>
<path d="M13 8.10449C15.1 8.10449 16 9.00449 16 11.1045H18C18 7.88449 16.22 6.10449 13 6.10449V8.10449Z" fill="#333333"/>
</svg>
