<svg width="33" height="32" viewBox="0 0 33 32" fill="none" xmlns="http://www.w3.org/2000/svg">
<path d="M16.3053 0.501221C7.46984 0.501221 0.305176 7.66456 0.305176 16.5014C0.305176 23.5706 4.8897 29.5682 11.247 31.6838C12.0467 31.8319 12.3402 31.3367 12.3402 30.9141C12.3402 30.5326 12.3254 29.2722 12.3185 27.9352C7.86727 28.9031 6.928 26.0474 6.928 26.0474C6.20017 24.198 5.15148 23.7063 5.15148 23.7063C3.69979 22.7132 5.2609 22.7336 5.2609 22.7336C6.86759 22.8465 7.7136 24.3825 7.7136 24.3825C9.14065 26.8285 11.4566 26.1214 12.3697 25.7125C12.5133 24.6784 12.9279 23.9726 13.3855 23.573C9.83165 23.1684 6.09578 21.7965 6.09578 15.6657C6.09578 13.9188 6.72081 12.4915 7.74433 11.371C7.5782 10.968 7.03054 9.34067 7.89933 7.13677C7.89933 7.13677 9.24292 6.70674 12.3005 8.77684C13.5768 8.42233 14.9456 8.24454 16.3053 8.23845C17.6651 8.24454 19.0349 8.42233 20.3136 8.77684C23.3674 6.70674 24.7092 7.13677 24.7092 7.13677C25.5801 9.34067 25.0321 10.968 24.866 11.371C25.8919 12.4915 26.5127 13.9188 26.5127 15.6657C26.5127 21.8111 22.7697 23.1642 19.2068 23.5603C19.7807 24.0568 20.2921 25.0305 20.2921 26.5233C20.2921 28.6641 20.2735 30.3871 20.2735 30.9141C20.2735 31.3399 20.5616 31.8388 21.3726 31.6817C27.7265 29.5637 32.3052 23.5682 32.3052 16.5014C32.3052 7.66456 25.1416 0.501221 16.3053 0.501221ZM6.29775 23.2937C6.26251 23.3732 6.13745 23.3971 6.02352 23.3425C5.90747 23.2903 5.84229 23.1819 5.87991 23.1022C5.91436 23.0203 6.03968 22.9975 6.15546 23.0524C6.27178 23.1046 6.33802 23.214 6.29775 23.2937ZM7.08477 23.996C7.00847 24.0667 6.8593 24.0339 6.75808 23.9221C6.65343 23.8105 6.63382 23.6614 6.71119 23.5896C6.78988 23.5188 6.93454 23.5519 7.03947 23.6635C7.14412 23.7764 7.16453 23.9245 7.08477 23.996ZM7.62471 24.8945C7.52667 24.9626 7.36637 24.8988 7.26728 24.7565C7.16925 24.6142 7.16925 24.4436 7.2694 24.3752C7.36876 24.3068 7.52667 24.3683 7.62709 24.5095C7.72486 24.6542 7.72486 24.8248 7.62471 24.8945ZM8.53785 25.9351C8.45015 26.0318 8.26335 26.0059 8.12663 25.8739C7.98674 25.7449 7.94779 25.5618 8.03576 25.4651C8.12452 25.3681 8.31237 25.3954 8.45015 25.5263C8.58898 25.6551 8.63137 25.8395 8.53785 25.9351ZM9.71799 26.2864C9.67931 26.4117 9.4994 26.4687 9.31817 26.4154C9.13721 26.3606 9.01877 26.2138 9.05534 26.0872C9.09296 25.961 9.27366 25.9017 9.45621 25.9587C9.63691 26.0132 9.75561 26.159 9.71799 26.2864ZM11.061 26.4354C11.0655 26.5674 10.9119 26.6768 10.7216 26.6792C10.5303 26.6834 10.3756 26.5766 10.3735 26.4468C10.3735 26.3135 10.5237 26.2052 10.715 26.202C10.9053 26.1983 11.061 26.3043 11.061 26.4354ZM12.3804 26.3848C12.4032 26.5136 12.271 26.6458 12.0821 26.6811C11.8964 26.715 11.7244 26.6355 11.7008 26.5078C11.6778 26.3758 11.8124 26.2436 11.9978 26.2094C12.187 26.1766 12.3563 26.254 12.3804 26.3848Z" fill="#1A1A1A"/>
</svg>
