<svg width="33" height="33" viewBox="0 0 33 33" fill="none" xmlns="http://www.w3.org/2000/svg">
<path d="M29.0627 0.501221H3.4627C1.7027 0.501221 0.262695 1.94122 0.262695 3.70122V29.3012C0.262695 31.0612 1.7027 32.5012 3.4627 32.5012H29.0627C30.8227 32.5012 32.2627 31.0612 32.2627 29.3012V3.70122C32.2627 1.94122 30.8227 0.501221 29.0627 0.501221ZM10.0227 26.1012H5.0627V12.3412H10.0227V26.1012ZM7.4627 10.7412C6.0227 10.7412 5.0627 9.78122 5.0627 8.50122C5.0627 7.22122 6.0227 6.26122 7.6227 6.26122C9.0627 6.26122 10.0227 7.22122 10.0227 8.50122C10.0227 9.78122 9.0627 10.7412 7.4627 10.7412ZM27.4627 26.1012H22.5027V18.5812C22.5027 16.5012 21.2227 16.0212 20.7427 16.0212C20.2627 16.0212 18.6627 16.3412 18.6627 18.5812C18.6627 18.9012 18.6627 26.1012 18.6627 26.1012H13.7027V12.3412H18.6627V14.2612C19.3027 13.1412 20.5827 12.3412 22.9827 12.3412C25.3827 12.3412 27.3027 14.2612 27.3027 18.5812L27.4627 26.1012Z" fill="#fff"/>
</svg>
